<svg width="24" height="24" viewBox="0 0 24 24" fill="none" xmlns="http://www.w3.org/2000/svg">
<g clip-path="url(#clip0_187_3310)">
<path d="M3.34668 2.05469C3.01855 2.13672 2.77246 2.27734 2.52246 2.52734C2.26855 2.78125 2.1123 3.05859 2.04199 3.39844C1.9834 3.6875 1.9834 8.51953 2.04199 8.80469C2.18652 9.47656 2.72559 10.0156 3.39746 10.1602C3.52637 10.1875 4.03809 10.2031 4.72559 10.2031H5.84668L6.35449 10.7148C7.22949 11.5938 7.31543 11.5938 8.19043 10.7148L8.69824 10.2031H11.999H15.2998L15.8076 10.7148C16.3311 11.2383 16.5186 11.375 16.7256 11.375C16.9326 11.375 17.1201 11.2383 17.6436 10.7148L18.1514 10.2031H19.2725C20.4717 10.2031 20.6709 10.1797 21.0186 10.0117C21.4717 9.79297 21.8506 9.30469 21.9561 8.80469C22.0146 8.51562 22.0146 3.68359 21.9561 3.39844C21.8115 2.72656 21.2686 2.18359 20.6006 2.04297C20.2842 1.97656 3.6123 1.98828 3.34668 2.05469ZM9.88965 4.42188C10.0654 4.51172 10.2021 4.73438 10.2021 4.92969C10.2021 5.125 10.0654 5.34766 9.88965 5.4375C9.74121 5.51172 9.66309 5.51562 7.26855 5.51562H4.80371L4.64746 5.42969C4.25293 5.20703 4.24902 4.67188 4.63965 4.4375L4.79199 4.34375H7.26465C9.66699 4.34375 9.74121 4.34766 9.88965 4.42188ZM19.3428 4.42188C19.5186 4.51172 19.6553 4.73438 19.6553 4.92969C19.6553 5.125 19.5186 5.34766 19.3428 5.4375C19.1943 5.51172 19.1162 5.51562 16.7217 5.51562H14.2568L14.1006 5.42969C13.7061 5.20703 13.7021 4.67188 14.0928 4.4375L14.2451 4.34375H16.7178C19.1201 4.34375 19.1943 4.34766 19.3428 4.42188ZM9.88965 6.76562C10.0654 6.85547 10.2021 7.07812 10.2021 7.27344C10.2021 7.46875 10.0654 7.69141 9.88965 7.78125C9.74121 7.85547 9.66309 7.85938 7.26855 7.85938H4.80371L4.64746 7.77344C4.25293 7.55078 4.24902 7.01562 4.63965 6.78125L4.79199 6.6875H7.26465C9.66699 6.6875 9.74121 6.69141 9.88965 6.76562ZM19.3428 6.76562C19.5186 6.85547 19.6553 7.07812 19.6553 7.27344C19.6553 7.46875 19.5186 7.69141 19.3428 7.78125C19.1943 7.85547 19.1162 7.85938 16.7217 7.85938H14.2568L14.1006 7.77344C13.7061 7.55078 13.7021 7.01562 14.0928 6.78125L14.2451 6.6875H16.7178C19.1201 6.6875 19.1943 6.69141 19.3428 6.76562Z" fill="#B8EBE6"/>
<path d="M6.80276 12.6875C5.7637 12.9102 4.96683 13.9023 4.96683 14.9688C4.96683 16.0352 5.77151 17.0352 6.80276 17.25L7.05667 17.3008L6.90042 17.3281C5.83401 17.5 5.12698 17.8359 4.45901 18.4844C3.72464 19.1992 3.28714 20.1367 3.22464 21.1406C3.2012 21.4727 3.20901 21.5312 3.28323 21.6797C3.33792 21.7891 3.41605 21.8672 3.52151 21.9219C3.66995 22 3.74417 22 7.31058 22C10.877 22 10.9512 22 11.0996 21.9219C11.2051 21.8672 11.2832 21.7891 11.3379 21.6797C11.4121 21.5312 11.42 21.4727 11.3965 21.1406C11.2989 19.6328 10.3301 18.2578 8.9512 17.6602C8.61136 17.5156 8.04105 17.3516 7.86136 17.3516C7.80667 17.3516 7.71683 17.3398 7.66214 17.3242C7.58792 17.3047 7.61917 17.2891 7.81839 17.2461C8.66995 17.0742 9.41214 16.3281 9.59573 15.457C9.7637 14.6602 9.53323 13.9062 8.95511 13.3242C8.37308 12.7422 7.59964 12.5156 6.80276 12.6875Z" fill="#B8EBE6"/>
<path d="M16.1778 12.6875C15.1387 12.9102 14.3418 13.9023 14.3418 14.9688C14.3418 16.0352 15.1465 17.0352 16.1778 17.25L16.4317 17.3008L16.2754 17.3281C15.209 17.5 14.502 17.8359 13.834 18.4844C13.0996 19.1992 12.6621 20.1367 12.5996 21.1406C12.5762 21.4727 12.584 21.5312 12.6582 21.6797C12.7129 21.7891 12.791 21.8672 12.8965 21.9219C13.045 22 13.1192 22 16.6856 22C20.252 22 20.3262 22 20.4746 21.9219C20.5801 21.8672 20.6582 21.7891 20.7129 21.6797C20.7871 21.5312 20.795 21.4727 20.7715 21.1406C20.6739 19.6328 19.7051 18.2578 18.3262 17.6602C17.9864 17.5156 17.416 17.3516 17.2364 17.3516C17.1817 17.3516 17.0918 17.3398 17.0371 17.3242C16.9629 17.3047 16.9942 17.2891 17.1934 17.2461C18.045 17.0742 18.7871 16.3281 18.9707 15.457C19.1387 14.6602 18.9082 13.9062 18.3301 13.3242C17.7481 12.7422 16.9746 12.5156 16.1778 12.6875Z" fill="#B8EBE6"/>
</g>
<defs>
<clipPath id="clip0_187_3310">
<rect width="20" height="20" fill="white" transform="translate(2 2)"/>
</clipPath>
</defs>
</svg>
