<svg width="24" height="24" viewBox="0 0 24 24" fill="none" xmlns="http://www.w3.org/2000/svg">
<path d="M12.5226 14.3307V20.0472C12.5226 20.5713 12.9511 21 13.4748 21H19.1884C19.7121 21 20.1406 20.5713 20.1406 20.0472V14.3307C20.1406 13.8067 19.7121 13.3779 19.1884 13.3779H13.4748C12.9511 13.3779 12.5226 13.8067 12.5226 14.3307ZM3.95226 21H9.6658C10.1895 21 10.6181 20.5713 10.6181 20.0472V14.3307C10.6181 13.8067 10.1895 13.3779 9.6658 13.3779H3.95226C3.42852 13.3779 3 13.8067 3 14.3307V20.0472C3 20.5713 3.42852 21 3.95226 21ZM3 4.8031V10.5197C3 11.0437 3.42852 11.4724 3.95226 11.4724H9.6658C10.1895 11.4724 10.6181 11.0437 10.6181 10.5197V4.8031C10.6181 4.27908 10.1895 3.85034 9.6658 3.85034H3.95226C3.42852 3.85034 3 4.27908 3 4.8031ZM15.3317 3.27868L11.2846 7.31838C11.1964 7.40652 11.1263 7.51122 11.0785 7.62648C11.0308 7.74174 11.0062 7.86529 11.0062 7.99008C11.0062 8.11486 11.0308 8.23841 11.0785 8.35367C11.1263 8.46893 11.1964 8.57363 11.2846 8.66177L15.3317 12.711C15.7031 13.0826 16.303 13.0826 16.6744 12.711L20.7215 8.66177C20.8098 8.57363 20.8798 8.46893 20.9276 8.35367C20.9754 8.23841 21 8.11486 21 7.99008C21 7.86529 20.9754 7.74174 20.9276 7.62648C20.8798 7.51122 20.8098 7.40652 20.7215 7.31838L16.6839 3.27868C16.3126 2.90711 15.7031 2.90711 15.3317 3.27868V3.27868Z" fill="#B8EBE6"/>
</svg>
