<svg width="25" height="24" viewBox="0 0 25 24" fill="none" xmlns="http://www.w3.org/2000/svg">
<path d="M14.2883 3.46117C13.9343 3.16425 13.4752 3 12.9994 3C12.5235 3 12.0644 3.16425 11.7104 3.46117L4.639 9.39307C4.43794 9.56186 4.27715 9.76824 4.16707 9.9988C4.05698 10.2294 4.00006 10.479 4 10.7314V19.1995C4 19.6771 4.20319 20.135 4.56487 20.4727C4.92654 20.8103 5.41708 21 5.92857 21H8.5C9.01149 21 9.50203 20.8103 9.86371 20.4727C10.2254 20.135 10.4286 19.6771 10.4286 19.1995V14.3983C10.4286 14.2392 10.4963 14.0865 10.6169 13.974C10.7374 13.8614 10.9009 13.7982 11.0714 13.7982H14.9286C15.0991 13.7982 15.2626 13.8614 15.3831 13.974C15.5037 14.0865 15.5714 14.2392 15.5714 14.3983V19.1995C15.5714 19.6771 15.7746 20.135 16.1363 20.4727C16.498 20.8103 16.9885 21 17.5 21H20.0714C20.5829 21 21.0735 20.8103 21.4351 20.4727C21.7968 20.135 22 19.6771 22 19.1995V10.7314C21.9999 10.479 21.943 10.2294 21.8329 9.9988C21.7228 9.76824 21.5621 9.56186 21.361 9.39307L14.2896 3.46117H14.2883Z" fill="#B8EBE6"/>
</svg>
