<svg width="24" height="24" viewBox="0 0 24 24" fill="none" xmlns="http://www.w3.org/2000/svg">
<path d="M5.42308 21H4.03846C3.76304 21 3.49891 20.9052 3.30416 20.7364C3.10941 20.5676 3 20.3387 3 20.1V14.7C3 14.4613 3.10941 14.2324 3.30416 14.0636C3.49891 13.8948 3.76304 13.8 4.03846 13.8H5.42308C5.69849 13.8 5.96263 13.8948 6.15738 14.0636C6.35213 14.2324 6.46154 14.4613 6.46154 14.7V20.1C6.46154 20.3387 6.35213 20.5676 6.15738 20.7364C5.96263 20.9052 5.69849 21 5.42308 21V21ZM15.1154 21H13.7308C13.4554 21 13.1912 20.9052 12.9965 20.7364C12.8017 20.5676 12.6923 20.3387 12.6923 20.1V11.1C12.6923 10.8613 12.8017 10.6324 12.9965 10.4636C13.1912 10.2948 13.4554 10.2 13.7308 10.2H15.1154C15.3908 10.2 15.6549 10.2948 15.8497 10.4636C16.0444 10.6324 16.1538 10.8613 16.1538 11.1V20.1C16.1538 20.3387 16.0444 20.5676 15.8497 20.7364C15.6549 20.9052 15.3908 21 15.1154 21V21ZM19.9615 21H18.5769C18.3015 21 18.0374 20.9052 17.8426 20.7364C17.6479 20.5676 17.5385 20.3387 17.5385 20.1V6.9C17.5385 6.66131 17.6479 6.43239 17.8426 6.2636C18.0374 6.09482 18.3015 6 18.5769 6H19.9615C20.237 6 20.5011 6.09482 20.6958 6.2636C20.8906 6.43239 21 6.66131 21 6.9V20.1C21 20.3387 20.8906 20.5676 20.6958 20.7364C20.5011 20.9052 20.237 21 19.9615 21V21ZM10.2692 21H8.88462C8.6092 21 8.34506 20.9052 8.15031 20.7364C7.95556 20.5676 7.84615 20.3387 7.84615 20.1V3.9C7.84615 3.66131 7.95556 3.43239 8.15031 3.2636C8.34506 3.09482 8.6092 3 8.88462 3H10.2692C10.5446 3 10.8088 3.09482 11.0035 3.2636C11.1983 3.43239 11.3077 3.66131 11.3077 3.9V20.1C11.3077 20.3387 11.1983 20.5676 11.0035 20.7364C10.8088 20.9052 10.5446 21 10.2692 21V21Z" fill="#B8EBE6"/>
</svg>
