<svg width="31" height="30" viewBox="0 0 31 30" fill="none" xmlns="http://www.w3.org/2000/svg">
<path d="M21.6117 18.3359L22.2747 14H18.1276V11.1863C18.1276 9.99992 18.7069 8.84375 20.5644 8.84375H22.4499V5.15234C22.4499 5.15234 20.7387 4.85938 19.1027 4.85938C15.6872 4.85938 13.4548 6.93594 13.4548 10.6953V14H9.6582V18.3359H13.4548V28.8178C14.2277 28.9393 15.0089 29.0002 15.7912 29C16.5735 29.0002 17.3547 28.9393 18.1276 28.8178V18.3359H21.6117Z" fill="white"/>
<path d="M30.8021 15C30.8021 6.71578 24.1075 0 15.8493 0C7.59115 0 0.896484 6.71566 0.896484 15C0.896484 22.4869 6.36455 28.6925 13.5129 29.8178V19.3359H9.71632V15H13.5129V11.6953C13.5129 7.93594 15.7453 5.85938 19.1608 5.85938C20.7968 5.85938 22.508 6.15234 22.508 6.15234V9.84375H20.6225C18.7649 9.84375 18.1857 11 18.1857 12.1863V15H22.3328L21.6698 19.3359H18.1857V29.8178C25.3341 28.6925 30.8021 22.487 30.8021 15Z" fill="#1877F2"/>
</svg>
