<svg width="31" height="30" viewBox="0 0 31 30" fill="none" xmlns="http://www.w3.org/2000/svg">
<path d="M30.5201 12.0623H29.3157V12H15.8581V18H24.3087C23.0758 21.4928 19.763 24 15.8581 24C10.9035 24 6.88641 19.9702 6.88641 15C6.88641 10.0297 10.9035 6 15.8581 6C18.1451 6 20.2258 6.8655 21.8101 8.27925L26.0395 4.0365C23.3689 1.53975 19.7967 0 15.8581 0C7.6004 0 0.905273 6.71625 0.905273 15C0.905273 23.2838 7.6004 30 15.8581 30C24.1158 30 30.8109 23.2838 30.8109 15C30.8109 13.9943 30.7078 13.0125 30.5201 12.0623Z" fill="#FFC107"/>
<path d="M2.62891 8.01825L7.54166 11.6325C8.87097 8.331 12.0903 6 15.8577 6C18.1447 6 20.2254 6.8655 21.8097 8.27925L26.0391 4.0365C23.3685 1.53975 19.7963 0 15.8577 0C10.1143 0 5.13351 3.25275 2.62891 8.01825Z" fill="#FF3D00"/>
<path d="M15.8577 30C19.72 30 23.2294 28.5173 25.8828 26.106L21.2549 22.1775C19.7032 23.3613 17.8071 24.0016 15.8577 24C11.9684 24 8.66609 21.5123 7.42202 18.0405L2.5459 21.8093C5.02059 26.667 10.0462 30 15.8577 30Z" fill="#4CAF50"/>
<path d="M30.5204 12.0623H29.3159V12H15.8584V18H24.309C23.7193 19.6623 22.657 21.1149 21.2534 22.1782L21.2556 22.1768L25.8835 26.1052C25.5561 26.4037 30.8112 22.5 30.8112 15C30.8112 13.9943 30.7081 13.0125 30.5204 12.0623Z" fill="#1976D2"/>
</svg>
